<svg width="20" height="20" viewBox="0 0 20 20" fill="none" xmlns="http://www.w3.org/2000/svg">
<path d="M10 8.51852C8.05682 8.51852 6.48148 10.0939 6.48148 12.037C6.48148 13.9802 8.05682 15.5556 10 15.5556C11.9432 15.5556 13.5185 13.9802 13.5185 12.037C13.5185 10.0939 11.9435 8.51852 10 8.51852ZM10 9.47811C10.1766 9.47811 10.3199 9.62141 10.3199 9.79798V11.7172H12.2391C12.4156 11.7172 12.5589 11.8605 12.5589 12.037C12.5589 12.2136 12.4156 12.3569 12.2391 12.3569H10.3199V14.2761C10.3199 14.4527 10.1766 14.596 10 14.596C9.82343 14.596 9.68013 14.4527 9.68013 14.2761V12.3569H7.76094C7.58438 12.3569 7.44108 12.2136 7.44108 12.037C7.44108 11.8605 7.58438 11.7172 7.76094 11.7172H9.68013V9.79798C9.68013 9.62141 9.82343 9.47811 10 9.47811Z" fill="white"/>
<path d="M3.61111 0C1.6267 0 0 1.6267 0 3.61111V16.3889C0 18.3733 1.6267 20 3.61111 20H16.3889C18.3733 20 20 18.3733 20 16.3889V3.61111C20 1.6267 18.3733 0 16.3889 0H3.61111ZM3.61111 1.66667H16.3889C17.4723 1.66667 18.3333 2.52774 18.3333 3.61111V4.44444H1.66667V3.61111C1.66667 2.52774 2.52774 1.66667 3.61111 1.66667ZM1.66667 6.11111H18.3333V16.3889C18.3333 17.4723 17.4723 18.3333 16.3889 18.3333H3.61111C2.52774 18.3333 1.66667 17.4723 1.66667 16.3889V6.11111Z" fill="white"/>
</svg>
