<svg width="16" height="14" viewBox="0 0 16 14" fill="none" xmlns="http://www.w3.org/2000/svg">
<path d="M1.575 0C0.707 0 0 0.707 0 1.575V10.325C0 11.578 1.022 12.6 2.275 12.6H7.36777C6.91277 11.893 6.65 11.053 6.65 10.15C6.65 8.925 7.1333 7.8155 7.9208 7H7.175C6.8845 7 6.65 6.7655 6.65 6.475C6.65 6.1845 6.8845 5.95 7.175 5.95H9.44658C9.98558 5.726 10.577 5.6 11.2 5.6C11.5605 5.6 11.914 5.64186 12.25 5.72236V1.575C12.25 0.707 11.543 0 10.675 0H1.575ZM13.3 2.81777V6.11475C13.839 6.39475 14.315 6.77923 14.7 7.24473V4.375C14.7 3.5665 14.084 2.90527 13.3 2.81777ZM2.625 3.15H9.625C9.9155 3.15 10.15 3.3845 10.15 3.675C10.15 3.9655 9.9155 4.2 9.625 4.2H2.625C2.3345 4.2 2.1 3.9655 2.1 3.675C2.1 3.3845 2.3345 3.15 2.625 3.15ZM2.625 5.95H5.425C5.7155 5.95 5.95 6.1845 5.95 6.475C5.95 6.7655 5.7155 7 5.425 7H2.625C2.3345 7 2.1 6.7655 2.1 6.475C2.1 6.1845 2.3345 5.95 2.625 5.95ZM11.2 6.3C9.07375 6.3 7.35 8.02375 7.35 10.15C7.35 12.2762 9.07375 14 11.2 14C13.3262 14 15.05 12.2762 15.05 10.15C15.05 8.02375 13.3262 6.3 11.2 6.3ZM11.2 7.7C11.8734 7.7 12.4981 7.98172 12.95 8.44512V8.05C12.95 7.8568 13.1064 7.7 13.3 7.7C13.4935 7.7 13.65 7.8568 13.65 8.05V9.45C13.65 9.6432 13.4935 9.8 13.3 9.8H11.9C11.7064 9.8 11.55 9.6432 11.55 9.45C11.55 9.2568 11.7064 9.1 11.9 9.1H12.5863C12.2626 8.6702 11.7561 8.4 11.2 8.4C10.235 8.4 9.45 9.18505 9.45 10.15C9.45 11.115 10.235 11.9 11.2 11.9C11.9385 11.9 12.601 11.4313 12.8481 10.7338C12.9125 10.5514 13.1122 10.4558 13.2945 10.5205C13.4769 10.5853 13.5726 10.7849 13.5078 10.9669C13.1624 11.9437 12.2346 12.6 11.2 12.6C9.84935 12.6 8.75 11.501 8.75 10.15C8.75 8.799 9.84935 7.7 11.2 7.7ZM2.625 8.05H5.425C5.7155 8.05 5.95 8.2845 5.95 8.575C5.95 8.8655 5.7155 9.1 5.425 9.1H2.625C2.3345 9.1 2.1 8.8655 2.1 8.575C2.1 8.2845 2.3345 8.05 2.625 8.05Z" fill="#0E1726" fill-opacity="0.501961"/>
</svg>
