<svg width="45" height="51" viewBox="0 0 45 51" fill="none" xmlns="http://www.w3.org/2000/svg">
<path d="M18.9477 24.2962C12.4178 24.2962 7.10537 18.9837 7.10537 12.4539C7.10537 5.92408 12.4178 0.611633 18.9477 0.611633C25.4775 0.611633 30.7899 5.92408 30.7899 12.4539C30.7899 18.9837 25.4775 24.2962 18.9477 24.2962ZM27.1899 23.7515C25.6504 24.192 24.4448 25.381 24.0422 26.8565C23.0273 30.5773 24.1713 35.1864 27.4409 40.5545C30.7059 45.9155 34.3391 49.1579 38.2387 50.1893C39.796 50.6015 41.4942 50.2024 42.6689 49.1484L44.0391 47.9192C45.157 46.9161 45.3204 45.2665 44.4192 44.0823L42.4392 41.4817C41.6659 40.4656 40.2981 40.0287 39.0345 40.3958L35.9271 41.2958C35.1159 41.5243 34.4125 40.9311 34.146 40.7084C33.5018 40.1672 32.7948 39.2672 32.044 38.0344C30.4335 35.3889 30.5507 34.3965 30.5886 34.0696C30.6301 33.7215 30.8018 33.397 31.073 33.1578L33.3834 31.1162C34.3497 30.2612 34.6351 28.9194 34.0927 27.7778L32.6989 24.8386C32.0653 23.5028 30.4702 22.8147 28.9935 23.2375L27.1899 23.7515ZM25.4183 41.7861C22.537 37.0563 21.1953 32.7871 21.3564 29.0331H5.32903C2.39096 29.0331 0 31.4241 0 34.3621V35.2657C0 38.0534 1.15936 40.7321 3.18202 42.6162C5.81101 45.0628 10.6806 47.9808 18.9477 47.9808C22.9444 47.9808 26.1407 47.2963 28.6796 46.3145C27.5523 44.993 26.4616 43.4985 25.4183 41.7861Z" fill="#737373"/>
</svg>
