<svg width="45" height="51" viewBox="0 0 45 51" fill="none" xmlns="http://www.w3.org/2000/svg">
<path d="M14.5886 12.6218H30.4126L33.0719 5.53078C33.2772 4.98349 33.2001 4.37091 32.8677 3.89128C32.5353 3.41048 31.988 3.12436 31.4039 3.12436H26.9377C25.9784 1.69381 24.3484 0.75 22.5 0.75C20.6516 0.75 19.0216 1.69381 18.0623 3.12436H13.5961C13.012 3.12436 12.4647 3.41048 12.1335 3.89128C11.8011 4.37091 11.7239 4.98349 11.9293 5.53078L14.5886 12.6218ZM32.9591 16.1834H12.0409C7.11412 20.5759 -0.377003 29.0643 0.0147673 39.7846C0.240332 45.8511 5.19088 50.6117 11.293 50.6117H33.707C39.8091 50.6117 44.7597 45.8511 44.9852 39.7846C45.377 29.0643 37.8859 20.5759 32.9591 16.1834ZM21.9064 28.0552C22.8918 28.0552 23.6872 28.8506 23.6872 29.836C23.6872 30.8213 22.8918 31.6167 21.9064 31.6167H17.8462C17.7869 31.9966 17.7513 32.4003 17.7513 32.8039C17.7513 33.0057 17.7869 33.1957 17.7988 33.3975H21.9064C22.8918 33.3975 23.6872 34.1929 23.6872 35.1783C23.6872 36.1636 22.8918 36.9591 21.9064 36.9591H19.0334C19.9594 38.2531 21.2772 39.0841 22.7731 39.0841C24.8862 39.0841 25.5629 38.4193 26.5958 37.3983C27.2962 36.7098 28.424 36.7098 29.1126 37.4102C29.8012 38.1106 29.7893 39.2384 29.0889 39.9389C27.8661 41.1379 26.3465 42.6457 22.7731 42.6457C19.3302 42.6457 16.3741 40.3069 15.0089 36.9591H14.7833C13.798 36.9591 13.0025 36.1636 13.0025 35.1783C13.0025 34.3947 13.513 33.7299 14.2253 33.4925C14.2016 33.2669 14.1897 33.0414 14.1897 32.8039C14.1897 32.3765 14.2253 31.9492 14.2728 31.5336C13.5368 31.3081 13.0025 30.6433 13.0025 29.836C13.0025 28.8506 13.798 28.0552 14.7833 28.0552H15.2582C16.7184 25.0279 19.5439 22.9622 22.7731 22.9622C26.3465 22.9622 27.8661 24.4699 29.0889 25.669C29.7893 26.3694 29.8012 27.4972 29.1126 28.1977C28.4122 28.8981 27.2962 28.8981 26.5958 28.2095C25.5629 27.1885 24.8862 26.5237 22.7731 26.5237C21.5265 26.5237 20.3987 27.1173 19.5202 28.0552H21.9064Z" fill="#737373"/>
</svg>
