<svg width="45" height="45" viewBox="0 0 45 45" fill="none" xmlns="http://www.w3.org/2000/svg">
<path d="M0 13.75V36.875C0 41.35 3.65 45 8.125 45H36.875C41.35 45 45 41.35 45 36.875V13.75H0ZM31.9537 26.81L27.6338 30.0863L29.0963 34.7675C29.3063 35.4387 29.0588 36.17 28.4838 36.5763C28.2038 36.775 27.875 36.875 27.5475 36.875C27.205 36.875 26.8625 36.7663 26.575 36.5513L22.5 33.4987L18.425 36.55C17.8625 36.9738 17.0912 36.9825 16.5162 36.5763C15.9412 36.17 15.695 35.44 15.9037 34.7675L17.3662 30.0863L13.0463 26.81C12.49 26.3887 12.2663 25.66 12.4888 25C12.7113 24.34 13.33 23.895 14.0263 23.895H19.3587L20.965 19.2213C21.1912 18.565 21.8075 18.125 22.5 18.125C23.1925 18.125 23.8088 18.565 24.035 19.22L25.6413 23.8937H30.9737C31.67 23.8937 32.2887 24.3388 32.5112 24.9988C32.7337 25.66 32.5087 26.3887 31.9537 26.81ZM45 10V8.125C45 3.65 41.35 0 36.875 0H8.125C3.65 0 0 3.65 0 8.125V10H45Z" fill="#006BED"/>
</svg>
