<svg width="45" height="44" viewBox="0 0 45 44" fill="none" xmlns="http://www.w3.org/2000/svg">
<path d="M15 0.533264C6.72857 0.533264 0 7.26081 0 15.5312C0 17.8508 0.543867 20.1512 1.57994 22.2255L0.085798 27.5722C-0.140273 28.3811 0.0896484 29.2543 0.684291 29.849C1.12679 30.2915 1.72257 30.5312 2.33329 30.5312C2.54222 30.5312 2.75327 30.5032 2.95898 30.4454L8.30985 28.9512C9.77771 29.6841 11.3606 30.1577 12.9827 30.3784C12.9066 29.7248 12.8571 29.0622 12.8571 28.3883C12.8571 25.264 13.7101 22.3422 15.1758 19.8169H12.0368L11.1307 22.033C10.8768 22.6555 10.275 23.0312 9.64286 23.0312C9.44036 23.0312 9.23528 22.9933 9.03599 22.9119C8.21421 22.5765 7.82066 21.6369 8.15709 20.8151L12.9785 9.02936L12.9806 9.02517C13.0213 8.9266 13.0713 8.8316 13.1313 8.74267C13.142 8.72767 13.154 8.71684 13.1648 8.70291C13.2151 8.63219 13.269 8.56309 13.3301 8.50201C13.3536 8.47951 13.3808 8.46066 13.4054 8.43923C13.474 8.37923 13.5459 8.3232 13.6251 8.27392C13.6969 8.22999 13.7687 8.18678 13.847 8.15464C13.8502 8.15357 13.8532 8.15152 13.8553 8.15045C13.896 8.13331 13.9381 8.12671 13.9788 8.11278C14.0356 8.09457 14.0894 8.07435 14.1483 8.06256C14.2051 8.05078 14.2631 8.04908 14.3199 8.04373C14.367 8.03944 14.413 8.03224 14.4601 8.03117C14.5222 8.03117 14.5853 8.04041 14.6463 8.04791C14.6892 8.05327 14.7311 8.0519 14.774 8.06047C14.8511 8.07547 14.9261 8.10172 15 8.12743C15.0246 8.136 15.0497 8.13872 15.0732 8.14836C15.0754 8.14943 15.0774 8.15045 15.0774 8.15045C15.1749 8.19117 15.2679 8.24219 15.3557 8.30112C15.3868 8.32148 15.4126 8.34768 15.4415 8.37018C15.4951 8.41196 15.5513 8.45171 15.6006 8.49992C15.6424 8.54171 15.6751 8.58778 15.7115 8.63385C15.7404 8.67028 15.7726 8.702 15.7994 8.74057C15.8583 8.82843 15.9072 8.92349 15.948 9.02099C15.949 9.02313 15.9511 9.02303 15.9521 9.02517L18.6412 15.5814C21.5233 13.0218 25.2653 11.4248 29.3785 11.2748C27.5388 5.0744 21.7929 0.533264 15 0.533264ZM30 13.3904C21.7286 13.3904 15 20.118 15 28.3883C15 36.6587 21.7286 43.3862 30 43.3862C32.3196 43.3862 34.618 42.8434 36.6901 41.8084L42.041 43.3025C42.2467 43.3604 42.4589 43.3883 42.6667 43.3883C43.2774 43.3883 43.8732 43.1486 44.3157 42.7061C44.9104 42.1115 45.1403 41.2383 44.9142 40.4293L43.4201 35.0826C44.4561 33.0084 45 30.708 45 28.3883C45 20.118 38.2714 13.3904 30 13.3904ZM14.4664 13.8759L13.351 16.6026H15.5838L14.4664 13.8759ZM29.4643 20.8883C32.4182 20.8883 34.8214 23.2915 34.8214 26.2455V29.4597C34.8214 31.3112 33.8756 32.9444 32.4442 33.9066C32.8299 34.123 33.2657 34.2812 33.75 34.2812C34.6382 34.2812 35.3571 35.0001 35.3571 35.8883C35.3571 36.7765 34.6382 37.4955 33.75 37.4955C31.1657 37.4955 29.3911 35.7394 28.5833 34.729C26.0494 34.3047 24.1071 32.1115 24.1071 29.4597V26.2455C24.1071 23.2915 26.5104 20.8883 29.4643 20.8883ZM29.4643 24.1026C28.2825 24.1026 27.3214 25.0637 27.3214 26.2455V29.4597C27.3214 30.6415 28.2825 31.6026 29.4643 31.6026C30.6461 31.6026 31.6071 30.6415 31.6071 29.4597V26.2455C31.6071 25.0637 30.6461 24.1026 29.4643 24.1026Z" fill="#737373"/>
</svg>
