<svg width="45" height="50" viewBox="0 0 45 50" fill="none" xmlns="http://www.w3.org/2000/svg">
<path d="M41.875 49.1383H30.625C28.8987 49.1383 27.5 47.7396 27.5 46.0133V34.7633C27.5 33.3821 26.3813 32.2633 25 32.2633H20C18.6187 32.2633 17.5 33.3821 17.5 34.7633V46.0133C17.5 47.7396 16.1013 49.1383 14.375 49.1383H3.125C1.39875 49.1383 0 47.7396 0 46.0133V22.1546C0 19.2808 1.3175 16.5658 3.57375 14.7883L21.3387 0.789556C22.02 0.254556 22.98 0.254556 23.66 0.789556L41.4275 14.7883C43.6837 16.5658 45 19.2796 45 22.1521V46.0133C45 47.7396 43.6013 49.1383 41.875 49.1383Z" fill="#737373"/>
</svg>
