<svg width="16" height="16" viewBox="0 0 16 16" fill="none" xmlns="http://www.w3.org/2000/svg">
<path d="M7.78344 0C4.92204 0 2.59425 2.32778 2.59425 5.18919C2.59425 7.26703 5.16308 10.8887 6.69476 12.8623C6.95768 13.2014 7.3549 13.3961 7.78344 13.3961C8.21198 13.3961 8.60921 13.2014 8.87213 12.8623C10.4038 10.8887 12.9726 7.26703 12.9726 5.18919C12.9726 2.32778 10.6448 0 7.78344 0ZM7.78344 3.89189C8.49998 3.89189 9.08074 4.47265 9.08074 5.18919C9.08074 5.90573 8.49998 6.48649 7.78344 6.48649C7.0669 6.48649 6.48615 5.90573 6.48615 5.18919C6.48615 4.47265 7.0669 3.89189 7.78344 3.89189ZM2.47517 10.8108C1.87754 10.8108 1.33388 11.1637 1.09172 11.7095L0.131417 13.8716C-0.0774481 14.3417 -0.0356238 14.8797 0.244592 15.3108C0.525241 15.7424 0.999856 16 1.51402 16H14.052C14.5662 16 15.0412 15.7424 15.3215 15.3108C15.6021 14.8797 15.6443 14.3421 15.4355 13.8716L14.4752 11.7095C14.2326 11.1637 13.6898 10.8108 13.0917 10.8108H11.6838C11.4083 11.2281 11.1094 11.6601 10.7868 12.1081H13.0917C13.1769 12.1081 13.2548 12.1582 13.2894 12.2365L14.2497 14.3986C14.2912 14.4921 14.2578 14.568 14.2336 14.6047C14.2094 14.6415 14.1549 14.7027 14.0529 14.7027H1.51402C1.41196 14.7027 1.35621 14.6406 1.33243 14.6039C1.30865 14.5671 1.2753 14.4921 1.31638 14.3986L2.27753 12.2365C2.31213 12.1586 2.38998 12.1081 2.47517 12.1081H4.77922C4.45619 11.6601 4.15813 11.2281 3.88311 10.8108H2.47517Z" fill="#0E1726" fill-opacity="0.501961"/>
</svg>
