<svg width="150" height="28" viewBox="0 0 148 28" stroke="currentColor" fill="currentColor" class="group-hover:!text-primary shrink-0" xmlns="http://www.w3.org/2000/svg">
<path d="M0.516 3.10918H6.364V26.9092H0.516V3.10918ZM63.5507 15.0092C63.5507 16.4598 63.8793 17.7178 64.5367 18.7832C65.194 19.8258 66.0553 20.6192 67.1207 21.1632C68.2087 21.7072 69.3987 21.9792 70.6907 21.9792C71.824 21.9792 72.8213 21.8318 73.6827 21.5372C74.544 21.2425 75.3147 20.8572 75.9947 20.3812C76.6747 19.9052 77.2753 19.3952 77.7967 18.8512V25.0392C76.8447 25.7872 75.802 26.3765 74.6687 26.8072C73.5353 27.2378 72.096 27.4532 70.3507 27.4532C68.4467 27.4532 66.69 27.1585 65.0807 26.5692C63.4713 25.9798 62.0887 25.1298 60.9327 24.0192C59.7767 22.9085 58.8813 21.5938 58.2467 20.0752C57.612 18.5565 57.2947 16.8678 57.2947 15.0092C57.2947 13.1505 57.612 11.4618 58.2467 9.94318C58.8813 8.42451 59.7767 7.10985 60.9327 5.99918C62.0887 4.88851 63.4713 4.03851 65.0807 3.44918C66.69 2.85985 68.4467 2.56518 70.3507 2.56518C72.096 2.56518 73.5353 2.78051 74.6687 3.21118C75.802 3.64185 76.8447 4.23118 77.7967 4.97918V11.1672C77.2753 10.6232 76.6747 10.1132 75.9947 9.63718C75.3147 9.13851 74.544 8.75318 73.6827 8.48118C72.8213 8.18651 71.824 8.03918 70.6907 8.03918C69.3987 8.03918 68.2087 8.31118 67.1207 8.85518C66.0553 9.39918 65.194 10.1925 64.5367 11.2352C63.8793 12.2778 63.5507 13.5358 63.5507 15.0092Z" fill="#FF8E00"/>
<path d="M10.8966 0.389179H16.0646V26.9092H10.8966V0.389179ZM43.9287 16.8452V26.9092H38.7607V17.3892C38.7607 16.4372 38.602 15.7232 38.2847 15.2472C37.99 14.7485 37.4914 14.4992 36.7887 14.4992C36.3354 14.4992 35.9274 14.6125 35.5647 14.8392C35.2247 15.0432 34.9527 15.3605 34.7487 15.7912C34.5674 16.2218 34.4767 16.7545 34.4767 17.3892V26.9092H29.3087V17.3892C29.3087 16.4372 29.15 15.7232 28.8327 15.2472C28.538 14.7485 28.0394 14.4992 27.3367 14.4992C26.8834 14.4992 26.4754 14.6125 26.1127 14.8392C25.7727 15.0432 25.5007 15.3605 25.2967 15.7912C25.1154 16.2218 25.0247 16.7545 25.0247 17.3892V26.9092H20.0607V11.2692H25.0247V13.5812C25.4554 12.7425 26.0447 12.0852 26.7927 11.6092C27.5634 11.1332 28.4814 10.8952 29.5467 10.8952C30.7707 10.8952 31.7454 11.1218 32.4707 11.5752C33.196 12.0058 33.7174 12.6405 34.0347 13.4792C34.6014 12.6632 35.304 12.0285 36.1427 11.5752C36.9814 11.1218 37.9334 10.8952 38.9987 10.8952C40.2227 10.8952 41.186 11.1332 41.8887 11.6092C42.614 12.0625 43.1354 12.7312 43.4527 13.6152C43.77 14.4992 43.9287 15.5758 43.9287 16.8452ZM81.6785 5.38718C81.6785 4.57118 81.9732 3.91385 82.5625 3.41518C83.1518 2.89384 83.8545 2.63318 84.6705 2.63318C85.5092 2.63318 86.2118 2.89384 86.7785 3.41518C87.3678 3.91385 87.6625 4.57118 87.6625 5.38718C87.6625 6.20318 87.3678 6.87185 86.7785 7.39318C86.2118 7.91451 85.5092 8.17518 84.6705 8.17518C83.8545 8.17518 83.1518 7.91451 82.5625 7.39318C81.9732 6.87185 81.6785 6.20318 81.6785 5.38718ZM82.1885 11.2692H87.1525V26.9092H82.1885V11.2692ZM96.447 11.2692V26.9092H91.381V11.2692H96.447ZM100.969 16.5732C100.697 16.3012 100.402 16.0858 100.085 15.9272C99.7903 15.7685 99.4163 15.6892 98.963 15.6892C98.4643 15.6892 98.0223 15.8252 97.637 16.0972C97.2517 16.3692 96.957 16.7658 96.753 17.2872C96.549 17.8085 96.447 18.4432 96.447 19.1912L95.223 17.3892C95.223 16.1425 95.461 15.0318 95.937 14.0572C96.4357 13.0825 97.0817 12.3118 97.875 11.7452C98.6683 11.1785 99.4957 10.8952 100.357 10.8952C100.924 10.8952 101.468 11.0085 101.989 11.2352C102.51 11.4618 102.907 11.7792 103.179 12.1872L100.969 16.5732ZM109.179 19.0892C109.179 19.9278 109.361 20.6532 109.723 21.2652C110.086 21.8545 110.585 22.3192 111.219 22.6592C111.877 22.9992 112.579 23.1692 113.327 23.1692C113.962 23.1692 114.563 23.0785 115.129 22.8972C115.719 22.6932 116.251 22.4212 116.727 22.0812C117.226 21.7412 117.634 21.3218 117.951 20.8232V25.8212C117.407 26.2518 116.727 26.6032 115.911 26.8752C115.095 27.1245 114.098 27.2492 112.919 27.2492C111.197 27.2492 109.644 26.9092 108.261 26.2292C106.901 25.5492 105.825 24.5972 105.031 23.3732C104.261 22.1492 103.875 20.7212 103.875 19.0892C103.875 17.4345 104.261 16.0065 105.031 14.8052C105.825 13.5812 106.901 12.6292 108.261 11.9492C109.644 11.2692 111.197 10.9292 112.919 10.9292C114.098 10.9292 115.095 11.0652 115.911 11.3372C116.727 11.5865 117.407 11.9038 117.951 12.2892V17.3212C117.634 16.8225 117.215 16.4032 116.693 16.0632C116.195 15.7232 115.651 15.4625 115.061 15.2812C114.472 15.0998 113.894 15.0092 113.327 15.0092C112.579 15.0092 111.877 15.1905 111.219 15.5532C110.585 15.9158 110.086 16.4032 109.723 17.0152C109.361 17.6272 109.179 18.3185 109.179 19.0892ZM121.662 0.389179H126.83V26.9092H121.662V0.389179ZM138.782 27.2492C136.969 27.2492 135.394 26.9205 134.056 26.2632C132.742 25.5832 131.722 24.6312 130.996 23.4072C130.271 22.1832 129.908 20.7438 129.908 19.0892C129.908 17.4118 130.26 15.9612 130.962 14.7372C131.665 13.5132 132.674 12.5725 133.988 11.9152C135.326 11.2578 136.901 10.9292 138.714 10.9292C140.528 10.9292 142.058 11.2465 143.304 11.8812C144.551 12.4932 145.503 13.3885 146.16 14.5672C146.818 15.7458 147.146 17.1738 147.146 18.8512C147.146 19.1005 147.146 19.3498 147.146 19.5992C147.146 19.8258 147.124 20.0185 147.078 20.1772H132.798V17.3212H142.454L141.23 18.8852C141.344 18.7265 141.434 18.5338 141.502 18.3072C141.593 18.0578 141.638 17.8538 141.638 17.6952C141.638 17.0152 141.514 16.4258 141.264 15.9272C141.015 15.4285 140.664 15.0432 140.21 14.7712C139.757 14.4992 139.224 14.3632 138.612 14.3632C137.842 14.3632 137.196 14.5332 136.674 14.8732C136.153 15.2132 135.756 15.7345 135.484 16.4372C135.235 17.1172 135.099 17.9785 135.076 19.0212C135.076 19.9732 135.212 20.7892 135.484 21.4692C135.756 22.1492 136.164 22.6705 136.708 23.0332C137.252 23.3732 137.921 23.5432 138.714 23.5432C139.621 23.5432 140.392 23.3732 141.026 23.0332C141.684 22.6932 142.205 22.1832 142.59 21.5032L147.18 22.6252C146.364 24.1665 145.254 25.3225 143.848 26.0932C142.466 26.8638 140.777 27.2492 138.782 27.2492Z" fill="#404040"/>
</svg>
