<svg width="45" height="51" viewBox="0 0 45 51" fill="none" xmlns="http://www.w3.org/2000/svg">
<path d="M2.01104 0.000198296C1.7483 -0.00351757 1.48743 0.0450237 1.24361 0.143001C0.999791 0.240979 0.777874 0.386439 0.590757 0.570928C0.403641 0.755417 0.255057 0.975255 0.153641 1.21767C0.0522256 1.46008 0 1.72023 0 1.983C0 2.24577 0.0522256 2.50592 0.153641 2.74833C0.255057 2.99075 0.403641 3.21058 0.590757 3.39507C0.777874 3.57956 0.999791 3.72502 1.24361 3.823C1.48743 3.92098 1.7483 3.96952 2.01104 3.9658H3.99384V30.4496C1.7546 30.7709 0.02824 32.7032 0.02824 35.0297V48.2484C0.02824 49.3429 0.916536 50.2312 2.01104 50.2312H16.5516C17.6461 50.2312 18.5344 49.3429 18.5344 48.2484V39.6562C18.5344 38.9266 19.1266 38.3344 19.8563 38.3344H25.1437C25.8734 38.3344 26.4656 38.9266 26.4656 39.6562V48.2484C26.4656 49.3429 27.3539 50.2312 28.4484 50.2312H42.989C44.0835 50.2312 44.9718 49.3429 44.9718 48.2484V35.0297C44.9718 32.7032 43.2454 30.7709 41.0062 30.4496V3.9658H42.989C43.2517 3.96952 43.5126 3.92098 43.7564 3.823C44.0002 3.72502 44.2221 3.57956 44.4092 3.39507C44.5964 3.21058 44.7449 2.99075 44.8464 2.74833C44.9478 2.50592 45 2.24577 45 1.983C45 1.72023 44.9478 1.46008 44.8464 1.21767C44.7449 0.975255 44.5964 0.755417 44.4092 0.570928C44.2221 0.386439 44.0002 0.240979 43.7564 0.143001C43.5126 0.0450237 43.2517 -0.00351757 42.989 0.000198296H2.01104ZM11.9251 9.25328H14.5688C15.2985 9.25328 15.8907 9.84547 15.8907 10.5751V13.2189C15.8907 13.9486 15.2985 14.5407 14.5688 14.5407H11.9251C11.1954 14.5407 10.6032 13.9486 10.6032 13.2189V10.5751C10.6032 9.84547 11.1954 9.25328 11.9251 9.25328ZM21.1781 9.25328H23.8219C24.5515 9.25328 25.1437 9.84547 25.1437 10.5751V13.2189C25.1437 13.9486 24.5515 14.5407 23.8219 14.5407H21.1781C20.4485 14.5407 19.8563 13.9486 19.8563 13.2189V10.5751C19.8563 9.84547 20.4485 9.25328 21.1781 9.25328ZM30.4312 9.25328H33.0749C33.8046 9.25328 34.3968 9.84547 34.3968 10.5751V13.2189C34.3968 13.9486 33.8046 14.5407 33.0749 14.5407H30.4312C29.7015 14.5407 29.1093 13.9486 29.1093 13.2189V10.5751C29.1093 9.84547 29.7015 9.25328 30.4312 9.25328ZM11.9251 18.5064H14.5688C15.2985 18.5064 15.8907 19.0986 15.8907 19.8282V22.472C15.8907 23.2016 15.2985 23.7938 14.5688 23.7938H11.9251C11.1954 23.7938 10.6032 23.2016 10.6032 22.472V19.8282C10.6032 19.0986 11.1954 18.5064 11.9251 18.5064ZM21.1781 18.5064H23.8219C24.5515 18.5064 25.1437 19.0986 25.1437 19.8282V22.472C25.1437 23.2016 24.5515 23.7938 23.8219 23.7938H21.1781C20.4485 23.7938 19.8563 23.2016 19.8563 22.472V19.8282C19.8563 19.0986 20.4485 18.5064 21.1781 18.5064ZM30.4312 18.5064H33.0749C33.8046 18.5064 34.3968 19.0986 34.3968 19.8282V22.472C34.3968 23.2016 33.8046 23.7938 33.0749 23.7938H30.4312C29.7015 23.7938 29.1093 23.2016 29.1093 22.472V19.8282C29.1093 19.0986 29.7015 18.5064 30.4312 18.5064ZM11.9251 27.7594H14.5688C15.2985 27.7594 15.8907 28.3516 15.8907 29.0813V31.725C15.8907 32.4547 15.2985 33.0469 14.5688 33.0469H11.9251C11.1954 33.0469 10.6032 32.4547 10.6032 31.725V29.0813C10.6032 28.3516 11.1954 27.7594 11.9251 27.7594ZM21.1781 27.7594H23.8219C24.5515 27.7594 25.1437 28.3516 25.1437 29.0813V31.725C25.1437 32.4547 24.5515 33.0469 23.8219 33.0469H21.1781C20.4485 33.0469 19.8563 32.4547 19.8563 31.725V29.0813C19.8563 28.3516 20.4485 27.7594 21.1781 27.7594ZM30.4312 27.7594H33.0749C33.8046 27.7594 34.3968 28.3516 34.3968 29.0813V31.725C34.3968 32.4547 33.8046 33.0469 33.0749 33.0469H30.4312C29.7015 33.0469 29.1093 32.4547 29.1093 31.725V29.0813C29.1093 28.3516 29.7015 27.7594 30.4312 27.7594ZM7.95945 38.3344H10.6032C11.3329 38.3344 11.9251 38.9266 11.9251 39.6562V42.3C11.9251 43.0297 11.3329 43.6219 10.6032 43.6219H7.95945C7.22978 43.6219 6.63758 43.0297 6.63758 42.3V39.6562C6.63758 38.9266 7.22978 38.3344 7.95945 38.3344ZM34.3968 38.3344H37.0406C37.7702 38.3344 38.3624 38.9266 38.3624 39.6562V42.3C38.3624 43.0297 37.7702 43.6219 37.0406 43.6219H34.3968C33.6671 43.6219 33.0749 43.0297 33.0749 42.3V39.6562C33.0749 38.9266 33.6671 38.3344 34.3968 38.3344Z" fill="#006BED"/>
</svg>
