<svg width="14" height="14" viewBox="0 0 14 14" fill="none" xmlns="http://www.w3.org/2000/svg">
<path d="M13.4167 0H0.583333C0.260944 0 0 0.261333 0 0.583333V11.8611C0 13.0402 0.959389 14 2.13889 14H11.8611C13.0406 14 14 13.0402 14 11.8611V0.583333C14 0.261333 13.7391 0 13.4167 0ZM10.1111 8.55556C10.1111 8.3405 10.2853 8.16667 10.5 8.16667C10.7147 8.16667 10.8889 8.3405 10.8889 8.55556V9.33333C10.8889 9.54839 10.7147 9.72222 10.5 9.72222C10.2853 9.72222 10.1111 9.54839 10.1111 9.33333V8.55556ZM9.33333 8.55556V9.33333C9.33333 9.54839 9.15911 9.72222 8.94444 9.72222C8.72978 9.72222 8.55556 9.54839 8.55556 9.33333V8.55556C8.55556 8.3405 8.72978 8.16667 8.94444 8.16667C9.15911 8.16667 9.33333 8.3405 9.33333 8.55556ZM5.05556 3.30556C5.05556 2.98356 5.3165 2.72222 5.63889 2.72222H8.36111C8.6835 2.72222 8.94444 2.98356 8.94444 3.30556C8.94444 3.62756 8.6835 3.88889 8.36111 3.88889H5.63889C5.3165 3.88889 5.05556 3.62756 5.05556 3.30556ZM10.8889 11.2778H8.55556C8.34089 11.2778 8.16667 11.1039 8.16667 10.8889C8.16667 10.6738 8.34089 10.5 8.55556 10.5H10.8889C11.1036 10.5 11.2778 10.6738 11.2778 10.8889C11.2778 11.1039 11.1036 11.2778 10.8889 11.2778Z" fill="#0E1726" fill-opacity="0.501961"/>
</svg>
