<svg width="45" height="43" viewBox="0 0 45 43" fill="none" xmlns="http://www.w3.org/2000/svg">
<path d="M5.0625 0C2.27138 0 0 2.27138 0 5.0625V37.6875C0 40.4786 2.27138 42.75 5.0625 42.75H9.92285C8.65723 41.4349 7.875 39.6518 7.875 37.6875V5.0625C7.875 3.09825 8.65723 1.31513 9.92285 0H5.0625ZM15.1875 0C12.3964 0 10.125 2.27138 10.125 5.0625V37.6875C10.125 40.4786 12.3964 42.75 15.1875 42.75H39.9375C42.7286 42.75 45 40.4786 45 37.6875V16.875H33.1875C30.3964 16.875 28.125 14.6036 28.125 11.8125V0H15.1875ZM31.5 0.98877V11.8125C31.5 12.7429 32.2571 13.5 33.1875 13.5H44.0112L31.5 0.98877ZM20.8125 22.5H34.3125C35.244 22.5 36 23.2549 36 24.1875C36 25.1201 35.244 25.875 34.3125 25.875H20.8125C19.881 25.875 19.125 25.1201 19.125 24.1875C19.125 23.2549 19.881 22.5 20.8125 22.5ZM20.8125 30.375H30.9375C31.869 30.375 32.625 31.1299 32.625 32.0625C32.625 32.9951 31.869 33.75 30.9375 33.75H20.8125C19.881 33.75 19.125 32.9951 19.125 32.0625C19.125 31.1299 19.881 30.375 20.8125 30.375Z" fill="#737373"/>
</svg>
