<svg width="14" height="14" viewBox="0 0 14 14" fill="none" xmlns="http://www.w3.org/2000/svg">
<path d="M14 3.11111V2.52778C14 1.134 12.866 0 11.4722 0H2.52778C1.134 0 0 1.134 0 2.52778V3.11111H14ZM0 4.27778V11.4722C0 12.866 1.134 14 2.52778 14H11.4722C12.866 14 14 12.866 14 11.4722V4.27778H0ZM3.69444 11.6667C3.15739 11.6667 2.72222 11.2315 2.72222 10.6944C2.72222 10.1574 3.15739 9.72222 3.69444 9.72222C4.2315 9.72222 4.66667 10.1574 4.66667 10.6944C4.66667 11.2315 4.2315 11.6667 3.69444 11.6667ZM3.69444 8.16667C3.15739 8.16667 2.72222 7.7315 2.72222 7.19444C2.72222 6.65739 3.15739 6.22222 3.69444 6.22222C4.2315 6.22222 4.66667 6.65739 4.66667 7.19444C4.66667 7.7315 4.2315 8.16667 3.69444 8.16667ZM7 11.6667C6.46294 11.6667 6.02778 11.2315 6.02778 10.6944C6.02778 10.1574 6.46294 9.72222 7 9.72222C7.53706 9.72222 7.97222 10.1574 7.97222 10.6944C7.97222 11.2315 7.53706 11.6667 7 11.6667ZM7 8.16667C6.46294 8.16667 6.02778 7.7315 6.02778 7.19444C6.02778 6.65739 6.46294 6.22222 7 6.22222C7.53706 6.22222 7.97222 6.65739 7.97222 7.19444C7.97222 7.7315 7.53706 8.16667 7 8.16667ZM10.3056 8.16667C9.7685 8.16667 9.33333 7.7315 9.33333 7.19444C9.33333 6.65739 9.7685 6.22222 10.3056 6.22222C10.8426 6.22222 11.2778 6.65739 11.2778 7.19444C11.2778 7.7315 10.8426 8.16667 10.3056 8.16667Z" fill="#0E1726" fill-opacity="0.501961"/>
</svg>
