<svg width="14" height="14" viewBox="0 0 14 14" fill="none" xmlns="http://www.w3.org/2000/svg">
<path d="M7 0C3.14022 0 0 3.14023 0 7C0 10.8598 3.14022 14 7 14C10.8598 14 14 10.8598 14 7C14 3.14023 10.8598 0 7 0ZM7.18184 3.15C8.57134 3.15 9.16606 3.73675 9.64346 4.2082C9.84996 4.4119 9.85194 4.74409 9.64824 4.95059C9.44489 5.15709 9.11166 5.15907 8.90586 4.95537C8.47851 4.53362 8.14117 4.2 7.18252 4.2C6.34007 4.2 5.60413 4.76455 5.20898 5.6H6.825C7.1148 5.6 7.35 5.83485 7.35 6.125C7.35 6.41515 7.1148 6.65 6.825 6.65H4.91982C4.90792 6.7648 4.9 6.88135 4.9 7C4.9 7.11865 4.90792 7.2352 4.91982 7.35H6.825C7.1148 7.35 7.35 7.58485 7.35 7.875C7.35 8.16515 7.1148 8.4 6.825 8.4H5.20898C5.60448 9.23545 6.33939 9.8 7.18184 9.8C8.14049 9.8 8.47816 9.46638 8.90586 9.04463C9.11166 8.84093 9.44489 8.84326 9.64824 9.04941C9.85194 9.25591 9.84996 9.58845 9.64346 9.7918C9.16606 10.2636 8.57167 10.85 7.18252 10.85C5.77272 10.85 4.56754 9.83185 4.08174 8.4H3.325C3.0352 8.4 2.8 8.16515 2.8 7.875C2.8 7.58485 3.0352 7.35 3.325 7.35H3.86572C3.85662 7.2345 3.85 7.1183 3.85 7C3.85 6.8817 3.85662 6.7655 3.86572 6.65H3.325C3.0352 6.65 2.8 6.41515 2.8 6.125C2.8 5.83485 3.0352 5.6 3.325 5.6H4.08105C4.5672 4.16815 5.77239 3.15 7.18184 3.15Z" fill="#0E1726" fill-opacity="0.501961"/>
</svg>
