<svg width="18" height="14" viewBox="0 0 18 14" fill="none" xmlns="http://www.w3.org/2000/svg">
<path d="M6.22856 0C5.29001 0 4.52811 0.769651 4.52811 1.72055V2.05823H17.7008V1.72055C17.7008 0.769651 16.9389 0 16.0003 0H6.22856ZM4.52811 3.29317V7.52863L7.43456 5.67622C7.77211 5.46628 8.16256 5.35944 8.55774 5.35944C9.09288 5.35944 9.60342 5.55285 9.99449 5.91099C10.4267 6.30205 10.6782 6.84128 10.6988 7.4217C10.7194 8.00212 10.5095 8.55363 10.1143 8.96939L9.64877 9.46787H16.0003C16.9389 9.46787 17.7008 8.69822 17.7008 7.74732V3.29317H4.52811ZM3.70482 3.3382L2.60977 3.67587C2.11991 3.82818 1.68367 4.13254 1.37081 4.54419L0.419686 5.79601C0.148 6.15415 0 6.5903 0 7.03899V10.2912V13.1711V13.1727C0.000109251 13.229 0.006004 13.2844 0.0168839 13.3375V13.3383C0.0278661 13.3917 0.0443606 13.4428 0.0651238 13.4919C0.0764755 13.5187 0.092103 13.543 0.106128 13.5683C0.117852 13.5894 0.127223 13.6118 0.140699 13.6318L0.141503 13.6326C0.171098 13.6762 0.204803 13.7169 0.242003 13.754C0.279177 13.7911 0.319733 13.825 0.363407 13.8545C0.49486 13.9435 0.653489 13.996 0.823293 13.996H2.46988L2.47068 13.9936L2.87268 13.9928C3.78571 13.9919 4.65703 13.6128 5.27985 12.9452L9.51128 8.40901C10.0225 7.87304 9.99247 7.02051 9.44375 6.52283C9.00905 6.12888 8.36563 6.06939 7.86631 6.3773L4.32229 8.64056L4.36329 8.59955C4.05456 8.7107 3.70482 8.48394 3.70482 8.13404V3.3382ZM8.87934 10.2912L5.88204 13.5063C5.71327 13.6875 5.52809 13.8518 5.3305 14L7.4016 13.996C8.31545 13.996 9.18396 13.6177 9.80555 12.9508L12.2875 10.2912H8.87934Z" fill="#0E1726" fill-opacity="0.501961"/>
</svg>
