<svg width="12" height="16" viewBox="0 0 12 16" fill="none" xmlns="http://www.w3.org/2000/svg">
<path d="M4.76724 1.05046L5.45485 2.67247C5.75445 3.37928 5.58845 4.21049 5.04364 4.72729L3.75883 5.94651C3.61403 6.08411 3.53883 6.28371 3.57123 6.48051C3.69523 7.23292 3.97003 7.97493 4.39564 8.70693C4.82044 9.43734 5.33765 10.0589 5.94765 10.5714C6.10926 10.707 6.33366 10.7422 6.53366 10.6754L8.03247 10.1753C8.72248 9.94535 9.47369 10.2098 9.89689 10.8314L10.8829 12.2798C11.3749 13.0026 11.2865 13.9994 10.6761 14.6122L10.0217 15.269C9.37049 15.9226 8.44048 16.1598 7.58007 15.8914C5.54885 15.2578 3.68163 13.377 1.97761 10.2486C0.271197 7.11572 -0.33081 4.45729 0.171195 2.27407C0.382397 1.35526 1.0364 0.623653 1.89041 0.350851L2.75162 0.0756479C3.55963 -0.181555 4.42164 0.235249 4.76724 1.05046Z" fill="#0E1726" fill-opacity="0.501961"/>
</svg>
