<svg width="45" height="47" viewBox="0 0 45 47" fill="none" xmlns="http://www.w3.org/2000/svg">
<path d="M39.6711 0.34906C36.733 0.34906 34.3421 2.73998 34.3421 5.67801C34.3421 6.24071 34.4526 6.77356 34.615 7.28317L25.4235 14.2566C24.583 13.7021 23.58 13.3754 22.5 13.3754C21.1453 13.3754 19.9211 13.8995 18.9797 14.7354L10.57 10.0934C10.6164 9.81103 10.6579 9.52588 10.6579 9.23064C10.6579 6.29261 8.26697 3.90169 5.32895 3.90169C2.39092 3.90169 0 6.29261 0 9.23064C0 12.1687 2.39092 14.5596 5.32895 14.5596C6.68362 14.5596 7.90789 14.0355 8.8492 13.1996L17.2589 17.8393C17.2123 18.1223 17.1711 18.4083 17.1711 18.7043C17.1711 21.6423 19.562 24.0333 22.5 24.0333C25.438 24.0333 27.8289 21.6423 27.8289 18.7043C27.8289 18.1416 27.7185 17.6088 27.556 17.0992L36.7475 10.1234C37.5883 10.6783 38.5907 11.007 39.6711 11.007C42.6091 11.007 45 8.61603 45 5.67801C45 2.73998 42.6091 0.34906 39.6711 0.34906ZM39.6711 16.928C36.7283 16.928 34.3421 19.3142 34.3421 22.257V41.2043C34.3421 44.1471 36.7283 46.5333 39.6711 46.5333C42.6138 46.5333 45 44.1471 45 41.2043V22.257C45 19.3142 42.6138 16.928 39.6711 16.928ZM5.32895 20.4806C2.38618 20.4806 0 22.8668 0 25.8096V41.2043C0 44.1471 2.38618 46.5333 5.32895 46.5333C8.27171 46.5333 10.6579 44.1471 10.6579 41.2043V25.8096C10.6579 22.8668 8.27171 20.4806 5.32895 20.4806ZM22.5 29.9543C19.5572 29.9543 17.1711 32.3405 17.1711 35.2833V41.2043C17.1711 44.1471 19.5572 46.5333 22.5 46.5333C25.4428 46.5333 27.8289 44.1471 27.8289 41.2043V35.2833C27.8289 32.3405 25.4428 29.9543 22.5 29.9543Z" fill="#737373"/>
</svg>
