<svg width="45" height="48" viewBox="0 0 45 48" fill="none" xmlns="http://www.w3.org/2000/svg">
<path d="M22.5 0C21.5256 0 20.5513 0.136441 19.604 0.408691L1.22168 5.69312C0.49943 5.90012 0 6.56207 0 7.3147C0 8.06732 0.498305 8.72815 1.22168 8.93628L19.604 14.2207C20.5513 14.493 21.5258 14.6294 22.5 14.6294C23.4742 14.6294 24.4476 14.4941 25.396 14.2207L43.7783 8.93628C44.5006 8.72928 45 8.06732 45 7.3147C45 6.56207 44.5006 5.90012 43.7761 5.69312L25.3938 0.408691C24.4471 0.136441 23.4744 0 22.5 0ZM6.75 13.9922V15.7214C6.58744 15.8985 6.46458 16.1083 6.38965 16.3367C6.03465 17.3838 5.625 18.9652 5.625 20.8169V22.8076C4.34577 23.8259 3.375 25.2385 3.375 27.0044C3.375 29.6614 5.29253 31.8082 7.78491 32.3833C8.7935 36.3828 10.4702 39.9455 12.832 42.561C15.422 45.4291 18.7952 47.2544 22.5 47.2544C26.2048 47.2544 29.578 45.4291 32.168 42.561C34.5298 39.9455 36.2065 36.3828 37.2151 32.3833C39.7075 31.8082 41.625 29.6614 41.625 27.0044C41.625 25.2385 40.6542 23.8259 39.375 22.8076V20.8169C39.375 18.9652 38.9658 17.3838 38.6104 16.3367C38.5337 16.113 38.411 15.9078 38.25 15.7346V13.9922L26.0178 17.5078C24.8726 17.8374 23.6891 18.0044 22.5 18.0044C21.3109 18.0044 20.1274 17.8374 18.9822 17.5078L6.75 13.9922ZM9.1582 19.1426C13.6878 21.3679 18.2255 22.5044 22.6758 22.5044H22.7703C27.1685 22.4883 31.5601 21.3658 35.8484 19.1777C35.936 19.6917 36 20.2415 36 20.8169V23.4932C35.9998 23.8123 36.0901 24.125 36.2605 24.3949C36.4308 24.6648 36.6742 24.8809 36.9624 25.0181C37.7355 25.3855 38.25 26.1076 38.25 27.0044C38.25 28.267 37.2626 29.2544 36 29.2544C36.2978 29.2544 36.2769 29.2478 35.9319 29.2478C35.5445 29.2476 35.1688 29.3807 34.8679 29.6248C34.567 29.8689 34.3593 30.209 34.2795 30.5881C33.4431 34.5741 31.7661 37.969 29.6631 40.2979C27.5601 42.6267 25.1076 43.8794 22.5 43.8794C19.8924 43.8794 17.4399 42.6267 15.3369 40.2979C13.2339 37.969 11.5569 34.5741 10.7205 30.5881C10.6407 30.209 10.433 29.8689 10.1321 29.6248C9.83122 29.3807 9.45554 29.2476 9.06812 29.2478C8.72306 29.2478 8.7022 29.2544 9 29.2544C7.73736 29.2544 6.75 28.267 6.75 27.0044C6.75 26.1076 7.26453 25.3855 8.0376 25.0181C8.32579 24.8809 8.56918 24.6648 8.73953 24.3949C8.90988 24.125 9.00019 23.8123 9 23.4932V20.8169C9 20.2283 9.06729 19.6659 9.1582 19.1426ZM16.875 24.7544C16.2783 24.7544 15.706 24.9914 15.284 25.4134C14.8621 25.8354 14.625 26.4077 14.625 27.0044C14.625 27.6011 14.8621 28.1734 15.284 28.5954C15.706 29.0173 16.2783 29.2544 16.875 29.2544C17.4717 29.2544 18.044 29.0173 18.466 28.5954C18.8879 28.1734 19.125 27.6011 19.125 27.0044C19.125 26.4077 18.8879 25.8354 18.466 25.4134C18.044 24.9914 17.4717 24.7544 16.875 24.7544ZM28.125 24.7544C27.5283 24.7544 26.956 24.9914 26.534 25.4134C26.1121 25.8354 25.875 26.4077 25.875 27.0044C25.875 27.6011 26.1121 28.1734 26.534 28.5954C26.956 29.0173 27.5283 29.2544 28.125 29.2544C28.7217 29.2544 29.294 29.0173 29.716 28.5954C30.1379 28.1734 30.375 27.6011 30.375 27.0044C30.375 26.4077 30.1379 25.8354 29.716 25.4134C29.294 24.9914 28.7217 24.7544 28.125 24.7544Z" fill="#006BED"/>
</svg>
