<svg width="12" height="14" viewBox="0 0 12 14" fill="none" xmlns="http://www.w3.org/2000/svg">
<path d="M5.6 0C4.67174 0 3.7815 0.368749 3.12513 1.02513C2.46875 1.6815 2.1 2.57174 2.1 3.5C2.1 4.42826 2.46875 5.3185 3.12513 5.97487C3.7815 6.63125 4.67174 7 5.6 7C6.52826 7 7.4185 6.63125 8.07487 5.97487C8.73125 5.3185 9.1 4.42826 9.1 3.5C9.1 2.57174 8.73125 1.6815 8.07487 1.02513C7.4185 0.368749 6.52826 0 5.6 0ZM9.80735 8.4H1.39265C0.62475 8.4 0 9.02475 0 9.79265V10.325C0 11.4842 0.65975 12.4866 1.85745 13.147C2.8539 13.6972 4.1832 14 5.6 14C8.2971 14 11.2 12.8499 11.2 10.325V9.79265C11.2 9.02475 10.5752 8.4 9.80735 8.4Z" fill="#0E1726" fill-opacity="0.501961"/>
</svg>
